nColumns=19
nRows=88
DataType=double
version=3
OpenSimVersion=4.1
endheader
time	ground_force_1_vx	ground_force_1_vy	ground_force_1_vz	ground_force_1_px	ground_force_1_py	ground_force_1_pz	ground_force_1_mx	ground_force_1_my	ground_force_1_mz	ground_force_2_vx	ground_force_2_vy	ground_force_2_vz	ground_force_2_px	ground_force_2_py	ground_force_2_pz	ground_force_2_mx	ground_force_2_my	ground_force_2_mz
1.35	-251.862	1379.07	26.7145	0.947312	0	-0.336443	0	-4.25833	0	0	0	0	0.000992561	0	-0.000316577	0	0	0
1.35833	-288.863	1429.2	18.1822	0.924053	0	-0.337321	0	-4.68801	0	0	0	0	0.000992484	0	-0.000316622	0	0	0
1.36667	-299.302	1502.3	1.36315	0.895708	0	-0.338008	0	-4.08907	0	0	0	0	0.000992408	0	-0.000316666	0	0	0
1.375	-270.042	1609.77	-8.529	0.864019	0	-0.336524	0	-2.68392	0	0	0	0	0.000992333	0	-0.000316711	0	0	0
1.38333	-213.948	1714.09	-8.08717	0.83161	0	-0.333638	0	-0.801281	0	0	0	0	0.000992257	0	-0.000316755	0	0	0
1.39167	-149.513	1771.66	-6.08606	0.799803	0	-0.331308	-0	1.23822	-0	0	0	0	0.000992183	0	-0.000316798	0	0	0
1.4	-88.218	1764.11	-9.35631	0.768267	0	-0.330243	-0	3.13965	-0	0	0	0	0.000992109	0	-0.000316842	0	0	0
1.40833	-30.3645	1701.15	-14.7562	0.7358	0	-0.32954	-0	4.62329	-0	0	0	0	0.000992035	0	-0.000316885	0	0	0
1.41667	27.3987	1600.47	-15.297	0.702146	0	-0.32823	-0	5.45775	-0	0	0	0	0.000991962	0	-0.000316928	0	0	0
1.425	86.4991	1470.82	-8.71707	0.668082	0	-0.326507	-0	5.52782	-0	0	0	0	0.00099189	0	-0.00031697	0	0	0
1.43333	141.304	1314.69	2.05996	0.634418	0	-0.325235	-0	4.87877	-0	0	0	0	0.000991818	0	-0.000317012	0	0	0
1.44167	181.994	1134.75	13.4395	0.601547	0	-0.324793	-0	3.70328	-0	0	0	0	0.000991747	0	-0.000317054	0	0	0
1.45	203.289	936.974	23.3131	0.569635	0	-0.324673	-0	2.28215	-0	0	0	0	0.000991676	0	-0.000317095	0	0	0
1.45833	204.291	730.245	30.1716	0.538017	0	-0.324107	-0	0.907193	-0	0	0	0	0.000991606	0	-0.000317137	0	0	0
1.46667	187.452	527.87	32.4474	0.505693	0	-0.322527	0	-0.19084	0	0	0	0	0.000991537	0	-0.000317177	0	0	0
1.475	155.536	346.661	29.3242	0.474605	0	-0.319443	0	-0.892674	0	0	0	0	0.000991468	0	-0.000317218	0	0	0
1.48333	112.841	202.482	21.9223	0.4509	0	-0.313877	0	-1.20537	0	0	0	0	0.0009914	0	-0.000317258	0	0	0
1.49167	69.0569	103.907	13.332	0.444569	0	-0.302879	0	-1.23562	0	0	0	0	0.000991332	0	-0.000317297	0	0	0
1.5	35.4943	48.1936	6.8488	0.476314	0	-0.274098	0	-1.13212	0	0	0	0	0.000991265	0	-0.000317336	0	0	0
1.50833	16.4294	23.7497	3.70396	0.585625	0	-0.197621	0	-1.0238	0	0	0	0	0.000991199	0	-0.000317375	0	0	0
1.51667	6.94042	14.8112	2.75439	0.679619	0	-0.0914805	0	-0.982293	0	0	0	0	0.000991134	0	-0.000317413	0	0	0
1.525	1.59583	10.0041	2.4412	0.54218	0	-0.00612657	0	-1.01927	0	0	0	0	0.000991069	0	-0.000317451	0	0	0
1.53333	0	0	0	0.000990641	0	-0.000317611	0	0	0	0	0	0	0.000991005	0	-0.000317489	0	0	0
1.54167	0	0	0	0.000990576	0	-0.000317648	0	0	0	0	0	0	0.000990941	0	-0.000317526	0	0	0
1.55	0	0	0	0.000990511	0	-0.000317686	0	0	0	0	0	0	0.000990879	0	-0.000317563	0	0	0
1.55833	0	0	0	0.000990447	0	-0.000317723	0	0	0	0	0	0	0.000990817	0	-0.000317599	0	0	0
1.56667	0	0	0	0.000990384	0	-0.000317759	0	0	0	0	0	0	0.000990756	0	-0.000317635	0	0	0
1.575	0	0	0	0.000990322	0	-0.000317795	0	0	0	0	0	0	0.000990695	0	-0.00031767	0	0	0
1.58333	0	0	0	0.00099026	0	-0.000317831	0	0	0	0	0	0	0.000990636	0	-0.000317705	0	0	0
1.59167	0	0	0	0.000990199	0	-0.000317866	0	0	0	-0.278286	11.2763	0.27023	0.50587	0	-0.143907	0	-1.47146	0
1.6	0	0	0	0.000990139	0	-0.000317901	0	0	0	-5.52021	19.7194	-2.38302	0.756341	0	-0.259266	0	-1.54597	0
1.60833	0	0	0	0.00099008	0	-0.000317935	0	0	0	-18.1035	53.2292	-6.49834	0.91934	0	-0.347756	0	-1.61414	0
1.61667	0	0	0	0.000990022	0	-0.000317969	0	0	0	-42.1474	151.004	-11.0817	0.954281	0	-0.374205	0	-1.62327	0
1.625	0	0	0	0.000989964	0	-0.000318002	0	0	0	-76.8683	357.075	-14.0364	0.959811	0	-0.379568	0	-1.49345	0
1.63333	0	0	0	0.000989908	0	-0.000318035	0	0	0	-113.351	664.855	-13.6665	0.957428	0	-0.378337	0	-1.14037	0
1.64167	0	0	0	0.000989852	0	-0.000318067	0	0	0	-146.47	972.709	-12.1979	0.949704	0	-0.374804	0	-0.53095	0
1.65	0	0	0	0.000989797	0	-0.000318099	0	0	0	-179.01	1166.55	-16.3254	0.937526	0	-0.372583	-0	0.241828	-0
1.65833	0	0	0	0.000989743	0	-0.00031813	0	0	0	-215.301	1250.36	-28.9423	0.920162	0	-0.374776	-0	0.921528	-0
1.66667	0	0	0	0.00098969	0	-0.000318161	0	0	0	-250.377	1317.31	-40.5784	0.896926	0	-0.380031	-0	1.16013	-0
1.675	0	0	0	0.000989638	0	-0.000318191	0	0	0	-264.092	1432.99	-36.9054	0.86931	0	-0.382753	-0	0.700611	-0
1.68333	0	0	0	0.000989586	0	-0.000318221	0	0	0	-243.668	1583.47	-16.5001	0.838816	0	-0.381789	0	-0.449302	0
1.69167	0	0	0	0.000989536	0	-0.00031825	0	0	0	-195.93	1708.87	5.88491	0.80667	0	-0.38114	0	-2.00023	0
1.7	0	0	0	0.000989486	0	-0.000318279	0	0	0	-135.527	1767.58	16.0815	0.77345	0	-0.383132	0	-3.53939	0
1.70833	0	0	0	0.000989438	0	-0.000318307	0	0	0	-70.6223	1761.75	14.6999	0.739447	0	-0.386514	0	-4.72706	0
1.71667	0	0	0	0.00098939	0	-0.000318334	0	0	0	-2.30571	1715.57	11.8085	0.705262	0	-0.388808	0	-5.38738	0
1.725	0	0	0	0.000989343	0	-0.000318361	0	0	0	65.9823	1640	12.8191	0.671808	0	-0.389339	0	-5.47853	0
1.73333	0	0	0	0.000989297	0	-0.000318388	0	0	0	128.778	1528.15	14.4223	0.63922	0	-0.389236	0	-5.03144	0
1.74167	0	0	0	0.000989252	0	-0.000318414	0	0	0	181.716	1374.11	11.6258	0.606098	0	-0.389492	0	-4.12752	0
1.75	0	0	0	0.000989208	0	-0.000318439	0	0	0	221.438	1183.08	3.60402	0.571806	0	-0.389933	0	-2.90941	0
1.75833	0	0	0	0.000989165	0	-0.000318464	0	0	0	243.841	969.22	-6.97288	0.538328	0	-0.389651	0	-1.58198	0
1.76667	0	0	0	0.000989123	0	-0.000318488	0	0	0	244.878	748.167	-16.8406	0.508368	0	-0.388078	0	-0.380821	0
1.775	0	0	0	0.000989082	0	-0.000318512	0	0	0	224.091	535.262	-23.756	0.483451	0	-0.385181	-0	0.481829	-0
1.78333	0	0	0	0.000989042	0	-0.000318535	0	0	0	184.076	347.244	-26.672	0.463845	0	-0.381395	-0	0.869202	-0
1.79167	0	0	0	0.000989003	0	-0.000318558	0	0	0	130.241	200.105	-25.2877	0.447879	0	-0.377119	-0	0.75136	-0
1.8	0	0	0	0.000988965	0	-0.00031858	0	0	0	75.7451	101.386	-20.0571	0.428794	0	-0.369784	-0	0.208085	-0
1.80833	0	0	0	0.000988928	0	-0.000318601	0	0	0	36.2956	46.9791	-12.7867	0.408468	0	-0.341855	0	-0.596681	0
1.81667	0	0	0	0.000988892	0	-0.000318622	0	0	0	15.6755	22.9958	-6.18341	0.445395	0	-0.260589	0	-1.46333	0
1.825	0	0	0	0.000988857	0	-0.000318642	0	0	0	6.28002	12.9418	-1.99045	0.579944	0	-0.138411	0	-2.21293	0
1.83333	0	0	0	0.000988823	0	-0.000318662	0	0	0	0	0	0	0.000989243	0	-0.000318522	0	0	0
1.84167	0	0	0	0.00098879	0	-0.000318681	0	0	0	0	0	0	0.000989211	0	-0.00031854	0	0	0
1.85	0	0	0	0.000988758	0	-0.0003187	0	0	0	0	0	0	0.000989181	0	-0.000318558	0	0	0
1.85833	0	0	0	0.000988727	0	-0.000318718	0	0	0	0	0	0	0.000989151	0	-0.000318576	0	0	0
1.86667	0	0	0	0.000988698	0	-0.000318735	0	0	0	0	0	0	0.000989122	0	-0.000318593	0	0	0
1.875	0	0	0	0.000988669	0	-0.000318751	0	0	0	0	0	0	0.000989094	0	-0.000318609	0	0	0
1.88333	0	0	0	0.000988641	0	-0.000318768	0	0	0	0	0	0	0.000989067	0	-0.000318625	0	0	0
1.89167	0	0	0	0.000988614	0	-0.000318783	0	0	0	0	0	0	0.000989041	0	-0.00031864	0	0	0
1.9	0.962391	9.95869	0.843849	0.770989	0	-0.0332648	0	-0.420607	0	0	0	0	0.000989016	0	-0.000318655	0	0	0
1.90833	-4.32911	16.4441	-1.29066	0.832461	0	-0.140339	0	-0.119511	0	0	0	0	0.000988992	0	-0.000318669	0	0	0
1.91667	-14.236	41.857	-4.74587	0.833412	0	-0.242806	0	-0.083862	0	0	0	0	0.000988969	0	-0.000318682	0	0	0
1.925	-32.1118	116.974	-9.54316	0.869119	0	-0.282036	0	-0.410577	0	0	0	0	0.000988948	0	-0.000318695	0	0	0
1.93333	-59.4704	284.022	-14.6869	0.895928	0	-0.294331	0	-1.1337	0	0	0	0	0.000988927	0	-0.000318707	0	0	0
1.94167	-90.0439	558.035	-17.4342	0.903415	0	-0.298354	0	-2.17632	0	0	0	0	0.000988907	0	-0.000318719	0	0	0
1.95	-118.236	871.387	-15.3218	0.898286	0	-0.299137	0	-3.32984	0	0	0	0	0.000988889	0	-0.00031873	0	0	0
1.95833	-148.082	1113.4	-10.4659	0.885905	0	-0.298699	0	-4.29091	0	0	0	0	0.000988871	0	-0.00031874	0	0	0
1.96667	-185.114	1254.82	-9.60484	0.867953	0	-0.298483	0	-4.7627	0	0	0	0	0.000988854	0	-0.00031875	0	0	0
1.975	-217.297	1354.54	-16.812	0.844582	0	-0.299083	0	-4.57758	0	0	0	0	0.000988839	0	-0.000318759	0	0	0
1.98333	-220.662	1466.13	-28.2731	0.816469	0	-0.299502	0	-3.7653	0	0	0	0	0.000988825	0	-0.000318767	0	0	0
1.99167	-188.684	1591.62	-37.1022	0.785113	0	-0.29888	0	-2.52369	0	0	0	0	0.000988811	0	-0.000318775	0	0	0
2	-134.916	1699.41	-40.9601	0.752859	0	-0.297712	0	-1.12342	0	0	0	0	0.000988799	0	-0.000318782	0	0	0
2.00833	-75.3099	1759.6	-42.2828	0.721355	0	-0.296659	-0	0.183664	-0	0	0	0	0.000988788	0	-0.000318789	0	0	0
2.01667	-18.2275	1760.71	-43.1041	0.690139	0	-0.29581	-0	1.21256	-0	0	0	0	0.000988777	0	-0.000318795	0	0	0
2.025	38.4405	1709.8	-42.7616	0.657523	0	-0.294849	-0	1.85538	-0	0	0	0	0.000988768	0	-0.0003188	0	0	0
2.03333	99.0077	1620.77	-39.9728	0.623326	0	-0.293713	-0	2.07469	-0	0	0	0	0.00098876	0	-0.000318805	0	0	0
2.04167	159.59	1502.71	-34.6467	0.588893	0	-0.292744	-0	1.89088	-0	0	0	0	0.000988753	0	-0.000318809	0	0	0
2.05	211.049	1357.94	-27.4053	0.555083	0	-0.292306	-0	1.36755	-0	0	0	0	0.000988747	0	-0.000318812	0	0	0
2.05833	246.613	1187.04	-18.7082	0.522131	0	-0.292467	-0	0.599906	-0	0	0	0	0.000988743	0	-0.000318815	0	0	0
2.06667	263.239	995.307	-9.0544	0.490021	0	-0.292788	0	-0.292937	0	0	0	0	0.000988739	0	-0.000318817	0	0	0
2.075	259.789	792.115	0.271243	0.458375	0	-0.292604	0	-1.17827	0	0	0	0	0.000988736	0	-0.000318819	0	0	0
